<svg width="128" height="128" viewBox="26 14 76 76" fill="none" xmlns="http://www.w3.org/2000/svg">
  <defs>
    <linearGradient id="ghostGrad128" x1="0%" y1="0%" x2="100%" y2="100%">
      <stop offset="0%" style="stop-color:#833AB4;stop-opacity:1" />
      <stop offset="50%" style="stop-color:#E1306C;stop-opacity:1" />
      <stop offset="100%" style="stop-color:#FCAF45;stop-opacity:1" />
    </linearGradient>
    <filter id="shadow128">
      <feDropShadow dx="0" dy="4" stdDeviation="4" flood-opacity="0.3" />
    </filter>
  </defs>
  <!-- Ghost body with wavy bottom -->
  <path
    d="M64 16C50 16 38 24 38 36C38 42 40 48 43 54L43 78C43 82 46 85 50 85C53 85 56 83.5 57.5 81.5L62 75C63.5 73.5 64.5 73.5 66 75L70.5 81.5C72 83.5 75 85 78 85C82 85 85 82 85 78L85 54C88 48 90 42 90 36C90 24 78 16 64 16Z"
    fill="url(#ghostGrad128)" filter="url(#shadow128)" />
  <!-- Wavy bottom effect -->
  <path
    d="M43 78 L43 85 Q45 87 47 85 Q49 87 51 85 Q53 87 55 85 Q57 87 59 85 Q61 87 63 85 Q65 87 67 85 Q69 87 71 85 Q73 87 75 85 Q77 87 79 85 Q81 87 83 85 L85 78 Z"
    fill="url(#ghostGrad128)" opacity="0.9" />
  <!-- Left eye -->
  <circle cx="48" cy="42" r="5.5" fill="#FFFFFF" />
  <!-- Right eye -->
  <circle cx="80" cy="42" r="5.5" fill="#FFFFFF" />
</svg>